<svg xmlns="http://www.w3.org/2000/svg" xmlns:xlink="http://www.w3.org/1999/xlink" viewBox="0 0 110.43 115"><defs><style>.cls-1{fill:none;}.cls-2{fill:url(#linear-gradient);}.cls-3{fill:url(#linear-gradient-2);}.cls-4{fill:url(#linear-gradient-3);}.cls-5{fill:url(#linear-gradient-4);}.cls-6{fill:url(#linear-gradient-5);}.cls-7{fill:url(#linear-gradient-6);}.cls-8{fill:url(#linear-gradient-7);}.cls-9{fill:url(#linear-gradient-8);}.cls-10{fill:url(#linear-gradient-9);}.cls-11{fill:url(#linear-gradient-10);}.cls-12{fill:url(#linear-gradient-11);}.cls-13{fill:url(#linear-gradient-12);}.cls-14{fill:#f4f4f4;}</style><linearGradient id="linear-gradient" x1="-11883.6" y1="90.57" x2="-11926.91" y2="68.1" gradientTransform="matrix(-1, 0, 0, 1, -11848.89, 0)" gradientUnits="userSpaceOnUse"><stop offset="0" stop-color="#05307c"/><stop offset="0.5" stop-color="#146aa2"/><stop offset="1" stop-color="#21aad4"/></linearGradient><linearGradient id="linear-gradient-2" x1="21.19" y1="73.09" x2="67.21" y2="73.09" gradientUnits="userSpaceOnUse"><stop offset="0" stop-color="#92c15b"/><stop offset="1" stop-color="#136d39"/></linearGradient><linearGradient id="linear-gradient-3" x1="-11879.25" y1="82.17" x2="-11922.55" y2="59.7" xlink:href="#linear-gradient"/><linearGradient id="linear-gradient-4" x1="56.72" y1="57.47" x2="88.86" y2="77.19" xlink:href="#linear-gradient-2"/><linearGradient id="linear-gradient-5" x1="-11897.58" y1="15.28" x2="-11882.58" y2="77.96" xlink:href="#linear-gradient"/><linearGradient id="linear-gradient-6" x1="58.53" y1="3.21" x2="29.7" y2="86.03" xlink:href="#linear-gradient-2"/><linearGradient id="linear-gradient-7" x1="-11879.3" y1="82.27" x2="-11922.6" y2="59.8" xlink:href="#linear-gradient"/><linearGradient id="linear-gradient-8" x1="-11910.91" y1="52.34" x2="-11929.44" y2="64" xlink:href="#linear-gradient"/><linearGradient id="linear-gradient-9" x1="-11922.39" y1="68.66" x2="-11910.55" y2="49.44" xlink:href="#linear-gradient"/><linearGradient id="linear-gradient-10" x1="-11879.23" y1="82.13" x2="-11922.53" y2="59.66" xlink:href="#linear-gradient"/><linearGradient id="linear-gradient-11" x1="-11909.32" y1="54.87" x2="-11937.9" y2="72.84" xlink:href="#linear-gradient"/><linearGradient id="linear-gradient-12" x1="80.99" y1="86.17" x2="44.56" y2="5.3" xlink:href="#linear-gradient-2"/></defs><g id="Layer_2" data-name="Layer 2"><g id="Layer_1-2" data-name="Layer 1"><path class="cls-1" d="M76.85,68.75c3.92,4.83,7.84,9.66,12.39,14.79L76.85,68.75Z"/><path class="cls-2" d="M76.85,68.75h0l0-.07Z"/><path class="cls-3" d="M51.53,62.63l-5.68,3.94c-8,5.53-15.89,11-24.66,17,16.2-4.52,30.57-8.06,46-12.19C62.14,68.61,57,65.79,51.53,62.63Z"/><path class="cls-4" d="M76.8,68.68,64.36,53.82c-4.44,3-8.68,5.94-12.83,8.81,5.47,3.16,10.61,6,15.68,8.73Q72,70.1,76.85,68.75Z"/><path class="cls-5" d="M76.8,68.68,64.36,53.82c-4.44,3-8.68,5.94-12.83,8.81,5.47,3.16,10.61,6,15.68,8.73,7.2,3.91,14.27,7.7,22,12.18C84.69,78.41,76.82,68.7,76.8,68.68Z"/><path class="cls-6" d="M51.45,0Q48.27,8.46,45.1,16.93q-1.79,4.91-3.49,9.72l6.78,8.09C49.21,23.45,50.08,12.09,51.45,0Z"/><path class="cls-7" d="M45.1,16.93q-1.79,4.91-3.49,9.72c-6.66,18.83-12.7,37-20.42,56.9,8.77-6,16.68-11.45,24.66-17,1-10.9,1.77-21.34,2.54-31.83C49.21,23.45,50.08,12.09,51.45,0Q48.27,8.46,45.1,16.93Z"/><path class="cls-8" d="M76.85,68.75l2.45-.68L66.48,52.38l-2.12,1.44c4.57,5.16,8.5,10,12.44,14.86Z"/><polygon class="cls-9" points="64.36 53.82 64.36 53.82 64.36 53.82 64.36 53.82 64.36 53.82"/><polygon class="cls-10" points="64.36 53.82 64.36 53.82 64.36 53.82 64.36 53.82 64.36 53.82"/><path class="cls-11" d="M76.8,68.68c-3.94-4.85-7.87-9.7-12.44-14.86h0Z"/><path class="cls-12" d="M76.8,68.68c-3.94-4.85-7.87-9.7-12.44-14.86h0Z"/><path class="cls-13" d="M51.45,0c-1.37,12.09-2.24,23.45-3.06,34.74l16,19.08h0c4.15,5,20.48,25.19,24.88,29.72Z"/><path class="cls-14" d="M13.94,86l14,28.63H26.62l-5.29-10.66H6.38L1.16,114.59H0Zm-.11,2.57-7,14.32h14Z"/><path class="cls-14" d="M37.28,113.77v1A6.31,6.31,0,0,1,32.77,113a6,6,0,0,1-1.86-4.53V91.06H32.1v6.79h5.15v1H32.1v9.62a5.12,5.12,0,0,0,5.18,5.26Z"/><path class="cls-14" d="M43.23,114.59h-1V86.66h1v14.4a5.72,5.72,0,0,1,5.63-3.66,5.86,5.86,0,0,1,4.6,2.16,7.77,7.77,0,0,1,1.87,5.26v9.77h-1v-9.77a6.72,6.72,0,0,0-1.59-4.49,4.87,4.87,0,0,0-3.84-1.88,5.13,5.13,0,0,0-3.94,1.9,6.55,6.55,0,0,0-1.69,4.47Z"/><path class="cls-14" d="M76.17,97.81v16.78H75v-4.18a7.86,7.86,0,0,1-3.13,3.36A8.71,8.71,0,0,1,67.37,115a8.56,8.56,0,0,1-6.26-2.59,8.69,8.69,0,0,1,0-12.42,8.6,8.6,0,0,1,6.26-2.59,8.94,8.94,0,0,1,4.57,1.27A6.84,6.84,0,0,1,75,102V97.81Zm-16.48,8.43A7.84,7.84,0,0,0,67.43,114a7.24,7.24,0,0,0,5.38-2.3,7.74,7.74,0,0,0,0-10.9,7.47,7.47,0,0,0-10.82,0A7.56,7.56,0,0,0,59.69,106.24Z"/><path class="cls-14" d="M86.83,98.45a4.78,4.78,0,0,0-3.48,1.49,4.7,4.7,0,0,0-1.51,3.46v11.19h-1.2V97.81h1.2v2.5a5.25,5.25,0,0,1,2.09-2.09,6.25,6.25,0,0,1,3.16-.82,5.53,5.53,0,0,1,3.36,1.2v1.49A5,5,0,0,0,86.83,98.45Z"/><path class="cls-14" d="M95.26,112.33a8.61,8.61,0,0,1-2.57-6.2A8.38,8.38,0,0,1,95.3,100a8.88,8.88,0,0,1,12.54,0,8.41,8.41,0,0,1,2.59,6.16,8.66,8.66,0,0,1-2.53,6.2,8.18,8.18,0,0,1-6.15,2.65h-.34A8.23,8.23,0,0,1,95.26,112.33Zm14-6.11a7.53,7.53,0,0,0-2.26-5.46,7.24,7.24,0,0,0-5.38-2.31,7.34,7.34,0,0,0-5.43,2.33,7.52,7.52,0,0,0-2.29,5.46,7.84,7.84,0,0,0,7.74,7.72,7.24,7.24,0,0,0,5.38-2.3A7.53,7.53,0,0,0,109.24,106.22Z"/></g></g></svg>